<svg width="12" height="17" viewBox="0 0 12 17" fill="none" xmlns="http://www.w3.org/2000/svg">
<path d="M8.37259 0C6.86325 0 5.55941 0.361381 4.64423 1.07544C3.72904 1.78949 3.23077 2.83606 3.23077 4.1205V5.79985H0.461538C0.339134 5.79986 0.221748 5.83805 0.135195 5.90603C0.0486426 5.97401 1.22385e-05 6.0662 0 6.16234V9.06226C1.22385e-05 9.1584 0.0486426 9.25059 0.135195 9.31857C0.221748 9.38655 0.339134 9.42474 0.461538 9.42475H3.23077V16.3121C3.23078 16.4082 3.27941 16.5004 3.36596 16.5684C3.45251 16.6364 3.5699 16.6746 3.69231 16.6746H7.38461C7.50701 16.6746 7.6244 16.6364 7.71095 16.5684C7.79751 16.5004 7.84614 16.4082 7.84615 16.3121V9.42475H11.0769C11.1893 9.42475 11.2979 9.39252 11.3822 9.33412C11.4665 9.27573 11.5208 9.19517 11.5348 9.10757L11.9964 6.20765C12.0046 6.15662 11.9988 6.10482 11.9796 6.05567C11.9603 6.00652 11.9279 5.96115 11.8846 5.92258C11.8413 5.88401 11.788 5.85312 11.7283 5.83196C11.6687 5.8108 11.6039 5.79985 11.5385 5.79985H7.84615V4.34989C7.84615 3.9451 8.25384 3.6249 8.76923 3.6249H11.5385C11.6609 3.62489 11.7782 3.5867 11.8648 3.51872C11.9513 3.45074 12 3.35855 12 3.26241V0.487805C11.9999 0.399957 11.9591 0.315138 11.8853 0.249115C11.8115 0.183092 11.7097 0.140357 11.5989 0.128854C11.191 0.0863529 9.71869 0 8.37259 0ZM8.37259 0.724981C9.49775 0.724981 10.5854 0.795684 11.0769 0.831887V2.89992H8.76923C7.75507 2.89992 6.92307 3.55337 6.92307 4.34989V6.16234C6.92308 6.25847 6.97171 6.35067 7.05827 6.41865C7.14482 6.48662 7.26221 6.52482 7.38461 6.52483H11.0156L10.6695 8.69977H7.38461C7.26221 8.69978 7.14482 8.73797 7.05827 8.80595C6.97171 8.87393 6.92308 8.96613 6.92307 9.06226V15.9496H4.15384V9.06226C4.15383 8.96613 4.1052 8.87393 4.01865 8.80595C3.9321 8.73797 3.81471 8.69978 3.69231 8.69977H0.923076V6.52483H3.69231C3.81471 6.52482 3.9321 6.48662 4.01865 6.41865C4.1052 6.35067 4.15383 6.25847 4.15384 6.16234V4.1205C4.15384 2.9806 4.5786 2.14845 5.29507 1.58944C6.01154 1.03042 7.04763 0.724981 8.37259 0.724981Z" fill="white"/>
</svg>
