<svg width="22" height="17" viewBox="0 0 22 17" fill="none" xmlns="http://www.w3.org/2000/svg">
<path d="M6.42614 0.113647C2.8831 0.113647 0 2.32402 0 5.04033V11.8619C0 14.5782 2.8831 16.7886 6.42614 16.7886H15.3239C18.8669 16.7886 21.75 14.5782 21.75 11.8619V5.04033C21.75 2.32402 18.8669 0.113647 15.3239 0.113647H6.42614ZM6.42614 0.871599H15.3239C18.3325 0.871599 20.7614 2.7337 20.7614 5.04033V11.8619C20.7614 14.1685 18.3325 16.0306 15.3239 16.0306H6.42614C3.41748 16.0306 0.988636 14.1685 0.988636 11.8619V5.04033C0.988636 2.7337 3.41748 0.871599 6.42614 0.871599ZM16.8068 3.14545C16.5446 3.14545 16.2932 3.22531 16.1077 3.36745C15.9223 3.50959 15.8182 3.70238 15.8182 3.9034C15.8182 4.10442 15.9223 4.29721 16.1077 4.43936C16.2932 4.5815 16.5446 4.66135 16.8068 4.66135C17.069 4.66135 17.3205 4.5815 17.5059 4.43936C17.6913 4.29721 17.7955 4.10442 17.7955 3.9034C17.7955 3.70238 17.6913 3.50959 17.5059 3.36745C17.3205 3.22531 17.069 3.14545 16.8068 3.14545ZM10.875 4.28238C7.87781 4.28238 5.4375 6.15327 5.4375 8.45111C5.4375 10.7489 7.87781 12.6198 10.875 12.6198C13.8722 12.6198 16.3125 10.7489 16.3125 8.45111C16.3125 6.15327 13.8722 4.28238 10.875 4.28238ZM10.875 5.04033C13.3379 5.04033 15.3239 6.5629 15.3239 8.45111C15.3239 10.3393 13.3379 11.8619 10.875 11.8619C8.41211 11.8619 6.42614 10.3393 6.42614 8.45111C6.42614 6.5629 8.41211 5.04033 10.875 5.04033Z" fill="white"/>
</svg>
