<svg width="22" height="17" viewBox="0 0 22 17" fill="none" xmlns="http://www.w3.org/2000/svg">
<path d="M5.17857 0.14978C2.32449 0.14978 0 1.93188 0 4.12V12.8545C0 15.0426 2.32449 16.8247 5.17857 16.8247H16.5714C19.4255 16.8247 21.75 15.0426 21.75 12.8545V4.12C21.75 1.93188 19.4255 0.14978 16.5714 0.14978H5.17857ZM5.17857 0.943824H16.5714C18.8659 0.943824 20.7143 2.36093 20.7143 4.12V12.8545C20.7143 14.6136 18.8659 16.0307 16.5714 16.0307H5.17857C2.88412 16.0307 1.03571 14.6136 1.03571 12.8545V4.12C1.03571 2.36093 2.88412 0.943824 5.17857 0.943824ZM4.66071 4.51702C3.80885 4.51702 3.10714 5.055 3.10714 5.70809V11.2664C3.10714 11.9195 3.80885 12.4575 4.66071 12.4575H17.0893C17.9411 12.4575 18.6429 11.9195 18.6429 11.2664V5.70809C18.6429 5.055 17.9411 4.51702 17.0893 4.51702H4.66071ZM4.87514 5.31107H16.8738L12.2617 8.84162C11.4886 9.43334 10.2519 9.43328 9.47921 8.84084L4.87514 5.31107ZM17.6071 5.87171V11.1028L14.1905 8.48724L17.6071 5.87171ZM4.14286 5.87248L7.55343 8.48724L4.14286 11.102V5.87248ZM13.4582 9.04788L16.8749 11.6634H4.87514L8.28571 9.04866L8.74693 9.40226C9.91514 10.2979 11.824 10.2985 12.993 9.40381L13.4582 9.04788Z" fill="white"/>
</svg>
